{"asset":{"version":"2.0","generator":"THREE.GLTFExporter"},"scenes":[{"nodes":[0],"name":"AuxScene"}],"scene":0,"nodes":[{"mesh":0}],"bufferViews":[{"buffer":0,"byteOffset":0,"byteLength":128484,"target":34962,"byteStride":12},{"buffer":0,"byteOffset":128484,"byteLength":128484,"target":34962,"byteStride":12}],"buffers":[{"byteLength":256968,"uri":"data:application/octet-stream;base64,"}],"accessors":[{"bufferView":0,"componentType":5126,"count":10707,"max":[100.61190795898438,26.595970153808594,100.61190795898438],"min":[-100.68809509277344,0.7959750294685364,-100.68809509277344],"type":"VEC3"},{"bufferView":1,"componentType":5126,"count":10707,"max":[0.9635265469551086,1,0.9694591164588928],"min":[-0.982235312461853,0.04445638507604599,-0.9768601655960083],"type":"VEC3"}],"materials":[{"pbrMetallicRoughness":{"baseColorFactor":[0.5019607843137255,0.5019607843137255,0.5019607843137255,1],"metallicFactor":0,"roughnessFactor":1}}],"meshes":[{"primitives":[{"mode":4,"attributes":{"POSITION":0,"NORMAL":1},"material":0}]}]}